# This file uses centimeters as units for non-parametric coordinates.

mtllib door.mtl
g default
v -1.010320 0.032471 -0.100000
v 0.989680 0.032471 -0.100000
v -1.010320 0.032471 0.100000
v 0.989680 0.032471 0.100000
v -1.010320 4.032471 0.100000
v 0.989680 4.032471 0.100000
v -1.010320 4.032471 -0.100000
v 0.989680 4.032471 -0.100000
v 0.940738 4.341488 -0.100000
v 0.798698 4.620256 -0.100000
v 0.577466 4.841488 -0.100000
v 0.298698 4.983528 -0.100000
v -0.010320 5.032471 -0.100000
v -0.319337 4.983528 -0.100000
v -0.598105 4.841488 -0.100000
v -0.819337 4.620256 -0.100000
v -0.961376 4.341488 -0.100000
v -1.010320 4.032471 -0.100000
v 0.989680 4.032471 -0.100000
v 0.940738 4.341488 0.100000
v 0.798698 4.620256 0.100000
v 0.577466 4.841488 0.100000
v 0.298698 4.983528 0.100000
v -0.010320 5.032471 0.100000
v -0.319337 4.983528 0.100000
v -0.598105 4.841488 0.100000
v -0.819337 4.620256 0.100000
v -0.961376 4.341488 0.100000
v -1.010320 4.032471 0.100000
v 0.989680 4.032471 0.100000
v -0.010320 4.032471 -0.100000
v -0.010320 4.032471 0.100000
v -0.731338 4.032471 0.100000
v -0.695598 4.255131 0.100000
v -0.454747 4.176874 0.100000
v -0.724975 4.032471 0.100000
v -0.470459 4.032471 0.100000
v -0.582660 4.448300 0.100000
v -0.403259 4.317958 0.100000
v -0.402120 4.317130 0.100000
v -0.684378 4.251485 0.100000
v -0.422656 4.600004 0.100000
v -0.288745 4.415691 0.100000
v -0.214001 4.659338 0.100000
v -0.151217 4.466109 0.100000
v -0.010320 4.675728 0.100000
v -0.010320 4.478478 0.100000
v 0.186153 4.637150 0.100000
v 0.125286 4.449821 0.100000
v 0.122761 4.442051 0.100000
v 0.373680 4.561000 0.100000
v 0.254070 4.396372 0.100000
v 0.524185 4.420811 0.100000
v 0.372797 4.310821 0.100000
v 0.589458 4.227350 0.100000
v 0.589312 4.227303 0.100000
v 0.418524 4.171811 0.100000
v 0.598507 4.032471 0.100000
v 0.394894 4.032471 0.100000
v 0.382168 4.032471 0.100000
v 0.394383 4.032471 -0.100000
v 0.611968 4.032471 -0.100000
v 0.406628 4.167945 -0.100000
v 0.588109 4.226912 -0.100000
v 0.353418 4.296741 -0.100000
v 0.516491 4.415221 -0.100000
v 0.417874 4.171599 -0.100000
v 0.249054 4.389468 -0.100000
v 0.366725 4.551428 -0.100000
v 0.127721 4.457315 -0.100000
v 0.181754 4.623613 -0.100000
v -0.010320 4.471983 -0.100000
v -0.010320 4.677135 -0.100000
v -0.147009 4.453158 -0.100000
v -0.213238 4.656990 -0.100000
v -0.275180 4.397020 -0.100000
v -0.413268 4.587081 -0.100000
v -0.387301 4.306364 -0.100000
v -0.573675 4.441772 -0.100000
v -0.446818 4.174298 -0.100000
v -0.678624 4.249616 -0.100000
v -0.475959 4.032471 -0.100000
v -0.705977 4.032471 -0.100000
v 0.989680 3.321891 -0.100000
v 0.989680 2.656699 -0.100000
v -1.010320 3.321891 -0.100000
v -1.010320 2.656699 -0.100000
v 0.276264 3.321891 -0.100000
v -0.301890 3.321891 -0.100000
v -0.301890 2.656699 -0.100000
v 0.276264 2.656699 -0.100000
v -1.010320 2.658751 0.100000
v -1.010320 3.310083 0.100000
v 0.989680 2.648967 0.100000
v 0.989680 3.319519 0.100000
v -0.309994 3.313387 0.100000
v 0.277110 3.316157 0.100000
v 0.277204 2.652452 0.100000
v -0.305054 2.655301 0.100000
v -1.010320 0.905189 0.100000
v -1.010320 1.573131 0.100000
v 0.989680 0.905190 0.100000
v 0.989680 1.573132 0.100000
v -0.277426 1.573131 0.100000
v 0.259312 1.573131 0.100000
v 0.259312 0.905189 0.100000
v -0.277426 0.905189 0.100000
v 0.989680 1.572441 -0.100000
v 0.989680 0.905326 -0.100000
v -1.010320 1.572441 -0.100000
v -1.010320 0.905326 -0.100000
v 0.259646 1.572441 -0.100000
v -0.267590 1.572441 -0.100000
v -0.267590 0.905326 -0.100000
v 0.259646 0.905326 -0.100000
vt 0.375000 0.000000
vt 0.625000 0.000000
vt 0.375000 0.250000
vt 0.625000 0.250000
vt 0.375000 0.500000
vt 0.625000 0.500000
vt 0.375000 0.750000
vt 0.625000 0.750000
vt 0.375000 1.000000
vt 0.625000 1.000000
vt 0.875000 0.000000
vt 0.875000 0.250000
vt 0.125000 0.000000
vt 0.125000 0.250000
vt 0.375000 0.312500
vt 0.387500 0.312500
vt 0.387500 0.688440
vt 0.375000 0.688440
vt 0.400000 0.312500
vt 0.400000 0.688440
vt 0.412500 0.312500
vt 0.412500 0.688440
vt 0.425000 0.312500
vt 0.425000 0.688440
vt 0.437500 0.312500
vt 0.437500 0.688440
vt 0.450000 0.312500
vt 0.450000 0.688440
vt 0.462500 0.312500
vt 0.462500 0.688440
vt 0.475000 0.312500
vt 0.475000 0.688440
vt 0.487500 0.312500
vt 0.487500 0.688440
vt 0.612500 0.312500
vt 0.625000 0.312500
vt 0.625000 0.688440
vt 0.612500 0.688440
vt 0.626409 0.064408
vt 0.648603 0.107966
vt 0.500000 0.150000
vt 0.591842 0.029841
vt 0.548284 0.007647
vt 0.500000 -0.000000
vt 0.451716 0.007647
vt 0.408159 0.029841
vt 0.373591 0.064409
vt 0.351397 0.107966
vt 0.343750 0.156250
vt 0.656250 0.156250
vt 0.648603 0.892034
vt 0.626409 0.935591
vt 0.500000 0.837500
vt 0.591841 0.970159
vt 0.548284 0.992353
vt 0.500000 1.000000
vt 0.451716 0.992353
vt 0.408159 0.970159
vt 0.373591 0.935591
vt 0.351397 0.892034
vt 0.343750 0.843750
vt 0.656250 0.843750
vt 0.409873 0.500000
vt 0.392925 0.876794
vt 0.430558 0.862984
vt 0.388335 0.841967
vt 0.428103 0.840376
vt 0.410572 0.906895
vt 0.438603 0.885143
vt 0.438781 0.885005
vt 0.394678 0.876151
vt 0.435572 0.930561
vt 0.456496 0.900339
vt 0.468175 0.939568
vt 0.477985 0.908106
vt 0.500000 0.942029
vt 0.500000 0.909976
vt 0.530699 0.935955
vt 0.521188 0.905454
vt 0.520794 0.904189
vt 0.560000 0.924166
vt 0.541311 0.897171
vt 0.583516 0.902307
vt 0.559862 0.883952
vt 0.593715 0.871891
vt 0.593692 0.871883
vt 0.567007 0.862090
vt 0.595129 0.841305
vt 0.563315 0.840033
vt 0.561326 0.839953
vt 0.563235 0.152529
vt 0.597232 0.153889
vt 0.565148 0.131572
vt 0.593505 0.123551
vt 0.556834 0.111518
vt 0.582314 0.094265
vt 0.566905 0.131075
vt 0.540527 0.096977
vt 0.558913 0.072922
vt 0.521569 0.086410
vt 0.530012 0.061519
vt 0.500000 0.084073
vt 0.500000 0.053300
vt 0.478642 0.087032
vt 0.468294 0.056523
vt 0.458615 0.095855
vt 0.437039 0.067627
vt 0.441097 0.110117
vt 0.411976 0.090399
vt 0.431797 0.130708
vt 0.395577 0.120463
vt 0.427244 0.152910
vt 0.391304 0.154348
vt 0.625000 0.794411
vt 0.830589 0.000000
vt 0.625000 0.835986
vt 0.789014 0.000000
vt 0.169411 0.000000
vt 0.375000 0.794411
vt 0.210986 0.000000
vt 0.375000 0.835986
vt 0.535823 0.794411
vt 0.463554 0.794411
vt 0.463554 0.835986
vt 0.535823 0.835986
vt 0.210857 0.250000
vt 0.375000 0.414142
vt 0.170149 0.250000
vt 0.375000 0.454851
vt 0.625000 0.413531
vt 0.788531 0.250000
vt 0.625000 0.455441
vt 0.830441 0.250000
vt 0.462541 0.455057
vt 0.535929 0.455230
vt 0.535941 0.413749
vt 0.463158 0.413927
vt 0.320455 0.250000
vt 0.375000 0.304545
vt 0.278709 0.250000
vt 0.375000 0.346291
vt 0.625000 0.304545
vt 0.679545 0.250000
vt 0.625000 0.346291
vt 0.721291 0.250000
vt 0.466612 0.346291
vt 0.533704 0.346291
vt 0.533704 0.304545
vt 0.466612 0.304545
vt 0.625000 0.903752
vt 0.721248 0.000000
vt 0.625000 0.945447
vt 0.679553 0.000000
vt 0.278752 0.000000
vt 0.375000 0.903752
vt 0.320447 0.000000
vt 0.375000 0.945447
vt 0.533746 0.903752
vt 0.467841 0.903752
vt 0.467841 0.945447
vt 0.533746 0.945447
vn 0.000000 -1.000000 0.000000
vn 0.000000 -1.000000 0.000000
vn 0.000000 -1.000000 0.000000
vn 0.000000 -1.000000 0.000000
vn -0.000000 0.000000 1.000000
vn -0.000000 0.000000 1.000000
vn -0.000000 0.000000 1.000000
vn -0.000000 0.000000 1.000000
vn -0.000000 0.000000 1.000000
vn -0.000000 0.000000 1.000000
vn -0.000000 0.000000 1.000000
vn 0.000000 1.000000 -0.000000
vn 0.000000 1.000000 -0.000000
vn 0.000000 1.000000 -0.000000
vn 0.000000 1.000000 -0.000000
vn 0.000000 1.000000 -0.000000
vn 0.000000 0.000000 -1.000000
vn 0.000000 0.000000 -1.000000
vn -0.000000 0.000000 -1.000000
vn -0.000000 0.000000 -1.000000
vn 0.000000 0.000000 -1.000000
vn 0.000000 0.000000 -1.000000
vn 1.000000 0.000000 0.000000
vn 1.000000 0.000000 0.000000
vn 1.000000 0.000000 0.000000
vn 1.000000 0.000000 0.000000
vn 1.000000 0.000000 0.000000
vn 1.000000 0.000000 0.000000
vn 1.000000 0.000000 0.000000
vn 1.000000 0.000000 0.000000
vn 1.000000 0.000000 0.000000
vn 1.000000 0.000000 0.000000
vn 1.000000 0.000000 0.000000
vn 1.000000 0.000000 0.000000
vn -1.000000 0.000000 0.000000
vn -1.000000 0.000000 0.000000
vn -1.000000 0.000000 0.000000
vn -1.000000 0.000000 0.000000
vn -1.000000 0.000000 0.000000
vn -1.000000 0.000000 0.000000
vn -1.000000 0.000000 0.000000
vn -1.000000 0.000000 0.000000
vn -1.000000 0.000000 0.000000
vn -1.000000 0.000000 0.000000
vn -1.000000 0.000000 0.000000
vn -1.000000 0.000000 0.000000
vn 0.951057 0.309016 -0.000000
vn 0.809017 0.587785 -0.000000
vn 0.809017 0.587785 -0.000000
vn 0.951057 0.309016 -0.000000
vn 0.587785 0.809017 -0.000000
vn 0.587785 0.809017 -0.000000
vn 0.309017 0.951057 -0.000000
vn 0.309017 0.951057 -0.000000
vn 0.000000 1.000000 -0.000000
vn 0.000000 1.000000 -0.000000
vn -0.309017 0.951057 -0.000000
vn -0.309017 0.951057 -0.000000
vn -0.587786 0.809017 -0.000000
vn -0.587786 0.809017 -0.000000
vn -0.809017 0.587785 -0.000000
vn -0.809017 0.587785 -0.000000
vn -0.951057 0.309017 -0.000000
vn -0.951057 0.309017 -0.000000
vn -0.987688 0.156434 -0.000000
vn -0.987688 0.156434 -0.000000
vn 0.987689 0.156432 -0.000000
vn 0.987689 0.156432 -0.000000
vn -0.000000 -0.000000 -1.000000
vn -0.000000 0.000000 -1.000000
vn -0.000000 0.000000 -1.000000
vn -0.000000 -0.000000 -1.000000
vn 0.000000 -0.000000 -1.000000
vn 0.000000 -0.000000 -1.000000
vn 0.000000 0.000000 -1.000000
vn 0.000000 -0.000000 -1.000000
vn -0.000000 0.000000 -1.000000
vn 0.000000 -0.000000 -1.000000
vn 0.000000 0.000000 -1.000000
vn 0.000000 0.000000 -1.000000
vn 0.000000 0.000000 -1.000000
vn -0.000000 0.000000 -1.000000
vn -0.000000 0.000000 -1.000000
vn -0.000000 0.000000 -1.000000
vn -0.000000 0.000000 -1.000000
vn -0.000000 0.000000 -1.000000
vn -0.000000 0.000000 -1.000000
vn 0.000000 -0.000000 -1.000000
vn 0.000000 -0.000000 -1.000000
vn -0.000000 0.000000 -1.000000
vn -0.000000 0.000000 -1.000000
vn -0.000000 -0.000000 -1.000000
vn -0.000000 -0.000000 -1.000000
vn -0.000000 0.000000 -1.000000
vn -0.000000 0.000000 -1.000000
vn 0.000000 -0.000000 1.000000
vn 0.000000 -0.000000 1.000000
vn 0.000000 -0.000000 1.000000
vn 0.000000 0.000000 1.000000
vn -0.000000 0.000000 1.000000
vn -0.000000 0.000000 1.000000
vn -0.000000 0.000000 1.000000
vn -0.000000 0.000000 1.000000
vn -0.000000 0.000000 1.000000
vn -0.000000 0.000000 1.000000
vn -0.000000 0.000000 1.000000
vn -0.000000 0.000000 1.000000
vn 0.000000 0.000000 1.000000
vn 0.000000 0.000000 1.000000
vn 0.000000 0.000000 1.000000
vn 0.000000 0.000000 1.000000
vn 0.000000 0.000000 1.000000
vn 0.000000 0.000000 1.000000
vn 0.000000 -0.000000 1.000000
vn 0.000000 0.000000 1.000000
vn -0.000000 0.000000 1.000000
vn -0.000000 0.000000 1.000000
vn -0.000000 0.000000 1.000000
vn -0.000000 0.000000 1.000000
vn -0.000000 0.000000 1.000000
vn -0.000000 0.000000 1.000000
vn -0.000000 0.000000 1.000000
vn 0.000000 -0.000001 1.000000
vn 0.000000 -0.000000 1.000000
vn 0.000000 -0.000000 1.000000
vn 0.000000 0.000000 1.000000
vn 0.000000 0.000000 1.000000
vn 0.000000 0.000000 1.000000
vn 0.000000 0.000000 1.000000
vn 0.000000 0.000000 1.000000
vn 0.000000 0.000000 1.000000
vn 0.000000 0.000000 1.000000
vn 0.000000 0.000000 1.000000
vn 0.000000 0.000000 1.000000
vn -0.000000 0.000000 -1.000000
vn 0.000000 -0.000000 -1.000000
vn 0.000000 -0.000000 -1.000000
vn -0.000000 0.000000 -0.000000
vn -0.000000 0.000000 -0.000000
vn -0.000000 0.000000 -0.000000
vn -0.000000 -0.000000 -1.000000
vn 0.000000 0.000000 -1.000000
vn 0.000000 0.000000 -1.000000
vn 0.000000 -0.000000 -1.000000
vn 0.000000 0.000000 -1.000000
vn 0.000000 0.000000 -1.000000
vn -0.000000 0.000000 -1.000000
vn -0.000000 0.000000 -1.000000
vn 0.000000 0.000000 -1.000000
vn 0.000000 0.000000 -1.000000
vn 0.000000 0.000000 -1.000000
vn 0.000000 0.000000 -1.000000
vn 0.000000 0.000000 1.000000
vn 0.000000 0.000000 1.000000
vn 0.000000 0.000000 1.000000
vn 0.000000 0.000000 1.000000
vn 0.000000 0.000000 1.000000
vn 0.000000 0.000000 1.000000
vn 0.000000 0.000000 1.000000
vn 0.000000 0.000000 1.000000
vn 0.000000 -0.000000 1.000000
vn 0.000000 -0.000000 1.000000
vn 0.000000 -0.000000 1.000000
vn 0.000000 -0.000000 1.000000
vn 0.000000 -0.000000 1.000000
vn 0.000000 -0.000000 1.000000
vn 0.000000 0.000000 -1.000000
vn 0.000000 0.000000 -1.000000
vn 0.000000 0.000000 -1.000000
vn 0.000000 0.000000 -1.000000
vn 0.000000 0.000000 -1.000000
vn 0.000000 0.000000 -1.000000
s off
g pCube2
usemtl initialShadingGroup
f 1/1/1 2/2/2 4/4/3 3/3/4
s 1
f 93/129/5 96/134/6 97/135/7 95/132/8 6/6/9 33/63/10 5/5/11
s off
f 5/5/12 33/63/13 6/6/14 8/8/15 7/7/16
s 2
f 7/7/17 8/8/18 84/114/19 88/122/20 89/123/21 86/119/22
s off
f 2/2/23 109/153/24 108/151/25 85/117/26 84/115/27 8/11/28 6/12/29 95/133/30 94/131/31 103/145/32 102/143/33 4/4/34
f 7/13/35 86/118/36 87/120/37 110/154/38 111/156/39 1/1/40 3/3/41 100/138/42 101/140/43 92/126/44 93/128/45 5/14/46
s 3
f 9/15/47 10/16/48 21/17/49 20/18/50
f 10/16/48 11/19/51 22/20/52 21/17/49
f 11/19/51 12/21/53 23/22/54 22/20/52
f 12/21/53 13/23/55 24/24/56 23/22/54
f 13/23/55 14/25/57 25/26/58 24/24/56
f 14/25/57 15/27/59 26/28/60 25/26/58
f 15/27/59 16/29/61 27/30/62 26/28/60
f 16/29/61 17/31/63 28/32/64 27/30/62
f 17/31/63 18/33/65 29/34/66 28/32/64
f 19/35/67 9/36/47 20/37/50 30/38/68
s 4
f 10/39/69 9/40/70 64/94/71 66/96/72
f 11/42/73 10/39/69 66/96/72 69/99/74
f 12/43/75 11/42/73 69/99/74 68/98/76 31/41/77 70/100/78 71/101/79
f 13/44/80 12/43/75 71/101/79 73/103/81
f 14/45/82 13/44/80 73/103/81 75/105/83
f 15/46/84 14/45/82 75/105/83 74/104/85 31/41/77 76/106/86 77/107/87
f 16/47/88 15/46/84 77/107/87 79/109/89
f 17/48/90 16/47/88 79/109/89 81/111/91
f 18/49/92 17/48/90 81/111/91 83/113/93
f 9/40/70 19/50/94 62/92/95 64/94/71
s 5
f 20/51/96 21/52/97 53/83/98 55/85/99
f 21/52/97 22/54/100 51/81/101 53/83/98
f 22/54/100 23/55/102 48/78/103 49/79/104 50/80/105 32/53/106 52/82/107 51/81/101
f 25/57/108 26/58/109 42/72/110 43/73/111 32/53/106 45/75/112 44/74/113
f 35/65/114 37/67/115 32/53/106
f 28/60/116 29/61/117 36/66/118 34/64/119
f 27/59/120 28/60/116 34/64/119 41/71/121 38/68/122
f 39/69/123 35/65/114 40/70/124
f 40/70/124 35/65/114 32/53/106
f 43/73/111 40/70/124 32/53/106
f 26/58/109 27/59/120 38/68/122 42/72/110
f 47/77/125 45/75/112 32/53/106
f 49/79/104 47/77/125 32/53/106 50/80/105
f 23/55/102 24/56/126 46/76/127 48/78/103
f 24/56/126 25/57/108 44/74/113 46/76/127
f 54/84/128 52/82/107 32/53/106
f 57/87/129 54/84/128 32/53/106
f 59/89/130 57/87/129 32/53/106 60/90/131
f 30/62/132 20/51/96 55/85/99 56/86/133 58/88/134
s 4
f 63/93/135 61/91/136 31/41/77
f 65/95/137 63/93/135 31/41/77
s off
f 63/93/138 64/94/139 67/97/140
s 4
f 68/98/76 65/95/137 31/41/77
f 72/102/141 70/100/78 31/41/77
f 74/104/85 72/102/141 31/41/77
f 78/108/142 76/106/86 31/41/77
f 80/110/143 78/108/142 31/41/77
f 82/112/144 80/110/143 31/41/77
s 2
f 87/121/145 90/124/146 91/125/147 85/116/148 108/150/149 112/158/150 113/159/151 110/155/152
f 86/119/22 89/123/21 90/124/146 87/121/145
f 91/125/147 88/122/20 84/114/19 85/116/148
s 1
f 101/141/153 104/146/154 105/147/155 103/144/156 94/130/157 98/136/158 99/137/159 92/127/160
f 97/135/7 98/136/158 94/130/157 95/132/8
f 92/127/160 99/137/159 96/134/6 93/129/5
f 3/3/161 4/4/162 102/142/163 106/148/164 107/149/165 100/139/166
f 105/147/155 106/148/164 102/142/163 103/144/156
f 100/139/166 107/149/165 104/146/154 101/141/153
s 2
f 111/157/167 114/160/168 115/161/169 109/152/170 2/10/171 1/9/172
f 110/155/152 113/159/151 114/160/168 111/157/167
f 115/161/169 112/158/150 108/150/149 109/152/170
